:SAMPLES-PER-SECOND 24
:FULLY-SPECIFIED
:DEGREES
41
root  4.03287 39.2713 42.2547 -5.5238 -8.14621 -1.78162
RightUpLeg  -15.7598 -7.34786 8.33391
RightLeg  26.1974 7.86039 3.97237
RightFoot  3.45319 1.85943 -14.0439
RightToes  -2.08645e-008 3.77894e-005 6.81332e-007
Spine  2.23036 -12.8124 -18.6811
Spine1  6.42011 -19.2697 25.499
HEad  -27.6355 28.3768 -5.56597
LeftShoulder1  7.15686 -12.9606 -37.3858
LeftArm  7.24735 11.405 -29.2185
LeftForeArm  169.786 -66.0539 -157.932
LeftHand  -0.239107 -3.5571 3.35769
RightShoulder  3.51152 5.94021 31.2918
RightArm  -5.30572 -54.6742 10.2607
RightForeArm  9.87677 34.8215 7.26317
RightHand  -0.525484 8.48437 -4.76774
LeftUpLeg  8.62368 20.7644 12.4025
LeftLeg  47.1349 13.4718 15.4523
LeftFoot  -0.70838 1.05245 -11.254
LeftToes  1.24767e-006 1.47042e-008 1.32732e-009
42
root  3.90801 39.6828 40.5858 -1.63611 1.72629 -1.53326
RightUpLeg  -19.6608 -9.11353 7.31257
RightLeg  18.8994 2.97383 0.935834
RightFoot  8.99032 1.95092 -10.5086
RightToes  -2.08645e-008 3.77894e-005 6.81332e-007
Spine  4.52764 -14.3376 -26.3239
Spine1  2.59305 -21.5357 32.2264
HEad  -28.0989 25.8677 -4.45792
LeftShoulder1  6.88484 -12.6895 -36.4622
LeftArm  9.99947 11.7367 -32.9851
LeftForeArm  166.37 -67.8894 -155.584
LeftHand  -0.271725 -3.98903 3.634
RightShoulder  3.79605 6.22296 33.1426
RightArm  -25.4058 -60.3463 29.5827
RightForeArm  8.38126 42.9335 9.87982
RightHand  -0.660507 7.636 -6.23858
LeftUpLeg  7.31242 16.7078 13.1149
LeftLeg  46.008 14.1389 15.5459
LeftFoot  2.89972 1.12409 -9.16076
LeftToes  1.24767e-006 1.47042e-008 1.32732e-009
43
root  4.13569 39.8254 38.6904 2.62366 9.45218 -0.464111
RightUpLeg  -24.1773 -5.85376 2.58567
RightLeg  13.5902 -4.18815 -0.0429124
RightFoot  14.421 1.417 -5.75081
RightToes  -2.08645e-008 3.77894e-005 6.81332e-007
Spine  5.40212 -14.602 -28.1752
Spine1  -0.242721 -21.123 33.6159
HEad  -28.6127 21.3806 -4.01371
LeftShoulder1  6.74401 -12.4922 -36.1174
LeftArm  12.6075 13.3621 -34.4969
LeftForeArm  163.35 -68.3486 -154.672
LeftHand  -0.24524 -4.11938 3.27017
RightShoulder  4.01547 6.49879 34.2555
RightArm  -40.8543 -57.6345 49.3353
RightForeArm  10.3826 47.9144 11.679
RightHand  -0.948211 6.97716 -9.21927
LeftUpLeg  4.56407 11.8118 11.8326
LeftLeg  42.529 13.4011 13.205
LeftFoot  7.07409 1.41603 -8.98909
LeftToes  1.24767e-006 1.47042e-008 1.32732e-009
44
root  4.63313 39.4601 36.8448 5.59119 13.9846 0.284912
RightUpLeg  -26.721 -2.60059 -2.69411
RightLeg  10.7136 -1.40941 0.0613918
RightFoot  13.8035 0.0906803 0.0901282
RightToes  -2.08645e-008 3.77894e-005 6.81332e-007
Spine  3.19988 -13.3738 -23.7351
Spine1  -0.0647251 -18.2238 28.1482
HEad  -30.1863 15.2159 -4.37073
LeftShoulder1  7.10514 -12.9108 -37.2047
LeftArm  14.4771 13.8134 -32.1795
LeftForeArm  162.119 -68.0559 -154.876
LeftHand  -0.16885 -3.75312 2.4079
RightShoulder  4.02494 6.56253 34.0957
RightArm  -37.6182 -50.2242 53.8713
RightForeArm  18.2967 52.3225 13.1356
RightHand  -1.12356 7.61343 -10.3378
LeftUpLeg  4.70531 8.47699 10.9965
LeftLeg  36.0153 10.7986 8.70774
LeftFoot  9.37897 2.23172 -12.4751
LeftToes  1.24767e-006 1.47042e-008 1.32732e-009
45
root  5.20893 38.6618 35.0374 6.87122 17.0132 0.699829
RightUpLeg  -28.2702 -0.329386 -7.07941
RightLeg  9.95211 3.71012 -0.42128
RightFoot  9.58734 -0.646226 3.83602
RightToes  -2.08645e-008 3.77894e-005 6.81332e-007
Spine  1.29068 -10.6135 -17.6161
Spine1  0.552998 -13.8749 20.5614
HEad  -30.9414 8.06199 -4.8007
LeftShoulder1  7.55489 -13.4864 -38.3456
LeftArm  15.4936 12.5194 -29.1836
LeftForeArm  159.4 -68.754 -153.67
LeftHand  -0.162242 -3.6543 2.34082
RightShoulder  3.94254 6.51849 33.4536
RightArm  -22.1967 -41.8381 44.204
RightForeArm  27.391 58.9882 16.4651
RightHand  -1.23332 8.11244 -10.9372
LeftUpLeg  7.54974 6.02874 10.4469
LeftLeg  28.4455 6.66971 4.27355
LeftFoot  3.76518 2.39666 -18.3849
LeftToes  1.24767e-006 1.47042e-008 1.32732e-009
46
root  5.7434 37.6415 32.8397 7.12207 21.1902 0.92981
RightUpLeg  -31.8573 0.213449 -11.3559
RightLeg  12.7295 0.956928 -0.878566
RightFoot  10.3502 -0.895051 5.03493
RightToes  -2.08645e-008 3.77894e-005 6.81332e-007
Spine  3.86036 -7.86093 -13.1224
Spine1  -0.424711 -10.5525 16.1694
HEad  -31.4987 1.72189 -4.41789
LeftShoulder1  7.58662 -13.5438 -38.378
LeftArm  15.2577 9.64558 -28.0807
LeftForeArm  154.963 -71.0014 -149.814
LeftHand  -0.220059 -3.82604 3.03266
RightShoulder  3.88858 6.49833 32.9957
RightArm  -9.88288 -30.8871 29.0839
RightForeArm  33.3542 64.7764 20.9329
RightHand  -0.962745 9.09389 -8.07841
LeftUpLeg  8.59653 1.87632 9.08095
LeftLeg  24.4739 3.13492 1.89405
LeftFoot  -12.1981 -0.147695 -22.9573
LeftToes  1.24767e-006 1.47042e-008 1.32732e-009
47
root  6.06103 36.6018 30.5269 6.39917 26.0908 2.2616
RightUpLeg  -34.6816 -0.53238 -16.7485
RightLeg  16.5746 -3.91465 -1.56443
RightFoot  14.1758 -1.16161 5.56059
RightToes  -2.08645e-008 3.77894e-005 6.81332e-007
Spine  8.1875 -5.93042 -11.3266
Spine1  0.456747 -8.72574 13.1343
HEad  -35.1201 -3.27121 -2.9441
LeftShoulder1  7.5631 -13.4647 -38.4447
LeftArm  13.625 5.27921 -27.3545
LeftForeArm  152.162 -73.719 -144.206
LeftHand  -0.302042 -3.19854 4.32569
RightShoulder  3.68818 6.35616 31.5158
RightArm  -7.83128 -20.4763 19.3264
RightForeArm  34.7716 66.3689 22.6296
RightHand  -0.926993 9.6041 -7.54605
LeftUpLeg  6.9848 -3.956 5.41775
LeftLeg  25.9132 3.81657 2.36213
LeftFoot  -26.8359 -2.6634 -20.5598
LeftToes  1.24767e-006 1.47042e-008 1.32732e-009
48
root  6.16287 36.0263 28.888 5.73755 29.8575 4.16046
RightUpLeg  -34.1337 0.645114 -22.0681
RightLeg  16.8432 -7.88041 -2.9084
RightFoot  16.8417 -1.08206 4.78602
RightToes  -2.08645e-008 3.77894e-005 6.81332e-007
Spine  9.29572 -4.4272 -10.9413
Spine1  4.21541 -7.11391 9.84231
HEad  -38.9256 -7.53596 -0.814021
LeftShoulder1  7.7504 -13.6365 -39.0614
LeftArm  11.7813 3.86045 -26.1469
LeftForeArm  150.932 -75.3876 -139.846
LeftHand  -0.391639 -2.58862 5.90963
RightShoulder  3.44578 6.12242 29.8869
RightArm  -10.5033 -18.0997 16.7092
RightForeArm  36.7558 69.3901 27.0826
RightHand  -1.15958 7.19453 -10.9526
LeftUpLeg  5.49258 -8.44667 1.48202
LeftLeg  27.9834 6.8568 4.27435
LeftFoot  -32.0981 -2.79812 -16.1661
LeftToes  1.24767e-006 1.47042e-008 1.32732e-009
49
root  6.18013 36.4375 28.2458 6.27966 32.2875 4.58978
RightUpLeg  -31.8538 0.0188041 -22.287
RightLeg  12.8329 -8.08391 -3.8338
RightFoot  19.3259 -1.01991 4.18127
RightToes  -2.08645e-008 3.77894e-005 6.81332e-007
Spine  6.91558 -3.50978 -10.1748
Spine1  6.2256 -5.5795 7.6742
HEad  -37.4635 -10.4804 0.54442
LeftShoulder1  7.93433 -13.7795 -39.7212
LeftArm  10.5543 11.23 -24.4422
LeftForeArm  152.792 -74.3563 -142.807
LeftHand  -0.417453 -2.8197 6.13719
RightShoulder  3.53757 6.12685 30.8329
RightArm  -10.2165 -21.9158 18.1212
RightForeArm  47.8408 75.283 41.4938
RightHand  -0.850165 6.40574 -8.67801
LeftUpLeg  4.18133 -9.11549 1.39225
LeftLeg  26.5666 5.98788 3.60503
LeftFoot  -30.1977 -2.48259 -15.9748
LeftToes  1.24767e-006 1.47042e-008 1.32732e-009
50
root  6.11281 37.5743 28.3943 7.25989 33.8918 3.56799
RightUpLeg  -29.7847 -3.51802 -18.1156
RightLeg  10.4498 -1.70499 -2.68239
RightFoot  18.2497 -1.85819 7.52082
RightToes  -2.08645e-008 3.77894e-005 6.81332e-007
Spine  3.50462 -3.33694 -9.31876
Spine1  5.18094 -4.68757 6.53325
HEad  -32.3695 -11.4505 0.109138
LeftShoulder1  7.64593 -13.4095 -39.0552
LeftArm  9.36624 24.9938 -23.0463
LeftForeArm  157.661 -71.3369 -149.63
LeftHand  -0.317304 -3.00668 4.61752
RightShoulder  3.83189 6.35338 32.9901
RightArm  -5.74001 -25.8448 22.4292
RightForeArm  67.3035 78.7363 59.6533
RightHand  -0.69854 7.29325 -6.73353
LeftUpLeg  2.82944 -7.11499 4.33453
LeftLeg  23.4308 2.32361 1.44932
LeftFoot  -23.1622 -1.65931 -17.2694
LeftToes  1.24767e-006 1.47042e-008 1.32732e-009
51
root  5.8929 38.821 28.9243 7.81396 35.1346 2.62817
RightUpLeg  -28.0467 -0.441473 -16.5672
RightLeg  13.9354 -0.0881964 -0.597534
RightFoot  12.8608 -2.13725 10.3603
RightToes  -2.08645e-008 3.77894e-005 6.81332e-007
Spine  0.217778 -3.24673 -9.29901
Spine1  4.47257 -4.05458 5.53398
HEad  -28.7186 -12.0415 -0.693674
LeftShoulder1  6.97004 -12.6781 -37.0042
LeftArm  8.72507 37.3477 -21.3473
LeftForeArm  162.118 -68.7989 -153.955
LeftHand  -0.228152 -3.27512 3.30148
RightShoulder  4.0682 6.59696 34.3853
RightArm  -1.02095 -28.4644 28.8101
RightForeArm  85.6991 80.0532 71.891
RightHand  -0.498257 8.76757 -4.46089
LeftUpLeg  2.21876 -5.93698 6.8586
LeftLeg  20.1278 0.00789123 0.390434
LeftFoot  -12.9929 -0.181595 -17.838
LeftToes  1.24767e-006 1.47042e-008 1.32732e-009
